# xmcd
#
# Track frame offsets: 
#        150
#        18670
#        35523
#        56565
#        76418
#        97881
#        121770
#        139823
#        164243
#        183177
#        197739
#        218188
#        234249
#        246941
#        268376
#
# Disc length: 3851 seconds
#
# Revision: 2
# Processed by: cddbd v1.5.2PL0 Copyright (c) Steve Scherf et al.
# Submitted via: ExactAudioCopy v1.3
#
DISCID=d50f090f
DTITLE=Various Artist - J-POP Cafe
DYEAR=2015
DGENRE=Pop
TTITLE0=US CLUB - Roman Flight
TTITLE1=Princess Princess - The hottest summer in the world
TTITLE2=Rebecca - Raspberry Dream
TTITLE3=Kahoru Kobira - Hold On Me
TTITLE4=Blast blast slump - Runner
TTITLE5=Misato Watanabe - Summertime Blues
TTITLE6=TM NETWORK - Get Wild
TTITLE7=Masayuki Suzuki - Lover
TTITLE8=Takashi Osawa - And I'm Lost
TTITLE9=Yoshitaka Minami - Make me a slow boogie
TTITLE10=unicorn - Great days
TTITLE11=Motoharu Sano - Glass Generation
TTITLE12=Mari Sugi - Vacation is always rainy (Marine)
TTITLE13=Seimi Suzuki with Rats and Stars - Lonely Chaplin
TTITLE14=Princess Princess - Ｍ
EXTD=
EXTT0=
EXTT1=
EXTT2=
EXTT3=
EXTT4=
EXTT5=
EXTT6=
EXTT7=
EXTT8=
EXTT9=
EXTT10=
EXTT11=
EXTT12=
EXTT13=
EXTT14=
PLAYORDER=
